<svg xmlns="http://www.w3.org/2000/svg" viewBox="0 0 320 180" role="img" aria-labelledby="t"><title id="t">Ocean freight: a container vessel loaded with containers and tank containers</title>
<rect x="88" y="94" width="30" height="14" fill="#0f7b80"/><rect x="120" y="94" width="30" height="14" fill="#c46a2b"/><rect x="152" y="94" width="30" height="14" fill="#1c3854"/><rect x="184" y="94" width="30" height="14" fill="#0f7b80"/><rect x="216" y="94" width="30" height="14" fill="#d9ecec" stroke="#0b1a2b" stroke-width="1"/><rect x="248" y="94" width="26" height="14" fill="#c46a2b"/>
<rect x="88" y="78" width="30" height="14" fill="#1c3854"/><rect x="120" y="78" width="30" height="14" fill="#d9ecec" stroke="#0b1a2b" stroke-width="1"/><rect x="152" y="78" width="30" height="14" fill="#0f7b80"/><rect x="184" y="78" width="30" height="14" fill="#c46a2b"/><rect x="216" y="78" width="30" height="14" fill="#1c3854"/>
<rect x="120" y="62" width="30" height="14" fill="none" stroke="#0b1a2b" stroke-width="1.2"/><rect x="123" y="64" width="24" height="10" rx="5" fill="#fff" stroke="#0b1a2b" stroke-width="1.2"/>
<rect x="152" y="62" width="30" height="14" fill="#0f7b80"/><rect x="184" y="62" width="30" height="14" fill="none" stroke="#0b1a2b" stroke-width="1.2"/><rect x="187" y="64" width="24" height="10" rx="5" fill="#fff" stroke="#0b1a2b" stroke-width="1.2"/>
<rect x="44" y="66" width="34" height="42" fill="#fff" stroke="#0b1a2b" stroke-width="2"/>
<path d="M50 76h22M50 86h22" stroke="#0b1a2b" stroke-width="2" opacity=".5"/>
<rect x="54" y="52" width="12" height="14" fill="#c46a2b"/>
<path d="M28 108h268l-22 34H50Z" fill="#0b1a2b"/>
<path d="M44 122h232" stroke="#0f7b80" stroke-width="2.5"/>
<path d="M10 150c12-5 24-5 36 0s24 5 36 0 24-5 36 0 24 5 36 0 24-5 36 0 24 5 36 0 24-5 36 0 24 5 36 0" fill="none" stroke="#0f7b80" stroke-width="2.5" stroke-linecap="round"/>
<path d="M28 162c12-4 24-4 36 0s24 4 36 0 24-4 36 0 24 4 36 0 24-4 36 0 24 4 36 0 24-4 36 0" fill="none" stroke="#9fe0e2" stroke-width="2" stroke-linecap="round"/>
<text x="20" y="26" font-family="JetBrains Mono, Consolas, monospace" font-size="10" letter-spacing="1.5" fill="#5a6573">OCEAN FREIGHT · FCL</text>
</svg>
